<svg width="292" height="583" viewBox="0 0 292 583" fill="none" xmlns="http://www.w3.org/2000/svg">
<path d="M149.459 582.45L142.628 566.534L132.26 580.408L149.459 582.45ZM149.46 1.45019L149.078 2.90078C150.131 3.17801 151.177 3.45497 152.217 3.73168L152.603 2.28215L152.989 0.832626C151.946 0.555197 150.897 0.277521 149.841 -0.00040309L149.46 1.45019ZM158.766 3.94158L158.372 5.38886C160.397 5.94025 162.394 6.49063 164.365 7.04003L164.768 5.59513L165.171 4.15023C163.194 3.59918 161.191 3.04721 159.161 2.49429L158.766 3.94158ZM170.609 7.24299L170.197 8.68534C172.114 9.23281 174.004 9.77933 175.868 10.3249L176.29 8.88533L176.711 7.44573C174.841 6.89824 172.944 6.34989 171.02 5.80065L170.609 7.24299ZM181.813 10.5223L181.382 11.959C183.193 12.5028 184.978 13.0456 186.738 13.5876L187.179 12.1541L187.621 10.7206C185.855 10.1764 184.062 9.63144 182.244 9.08564L181.813 10.5223ZM192.629 13.8564L192.176 15.2864C194.259 15.9461 196.303 16.6046 198.31 17.2618L198.777 15.8363L199.243 14.4108C197.228 13.7505 195.174 13.089 193.082 12.4265L192.629 13.8564ZM204.697 17.8092L204.215 19.2298C206.146 19.8846 208.04 20.5382 209.896 21.1907L210.393 19.7756L210.891 18.3604C209.024 17.7042 207.12 17.0469 205.179 16.3887L204.697 17.8092ZM215.868 21.7356L215.354 23.1448C217.137 23.795 218.883 24.4442 220.593 25.0923L221.124 23.6897L221.656 22.2871C219.934 21.6344 218.176 20.9809 216.382 20.3264L215.868 21.7356ZM226.464 25.7565L225.912 27.1513C227.957 27.9602 229.947 28.7674 231.88 29.5731L232.457 28.1885L233.034 26.8039C231.083 25.9909 229.077 25.1768 227.015 24.3616L226.464 25.7565ZM238.121 30.6128L237.517 31.9857C239.341 32.7884 241.111 33.5897 242.826 34.3895L243.46 33.0299L244.094 31.6704C242.358 30.861 240.568 30.0509 238.725 29.2399L238.121 30.6128ZM248.479 35.4405L247.814 36.7847C249.643 37.6905 251.403 38.5946 253.097 39.4969L253.802 38.1731L254.508 36.8493C252.786 35.9322 250.999 35.0146 249.145 34.0963L248.479 35.4405ZM259.351 41.2611L258.597 42.5573C260.345 43.5753 262.008 44.5909 263.589 45.6044L264.399 44.3416L265.208 43.0788C263.589 42.0408 261.889 41.0029 260.106 39.9648L259.351 41.2611ZM268.956 47.416L268.086 48.638C269.849 49.8932 271.487 51.1446 273.003 52.3924L273.956 51.2342L274.909 50.076C273.335 48.7803 271.641 47.4865 269.826 46.194L268.956 47.416ZM278.459 55.2667L277.408 56.3373C278.744 57.6477 279.947 58.953 281.024 60.2533L282.179 59.2965L283.334 58.3398C282.187 56.9537 280.912 55.5728 279.51 54.1961L278.459 55.2667ZM285.833 64.4472L284.543 65.2116C285.525 66.8704 286.309 68.5211 286.908 70.1649L288.318 69.6514L289.727 69.138C289.061 67.3086 288.194 65.4905 287.124 63.6828L285.833 64.4472ZM289.722 75.4263L288.234 75.6118C288.466 77.4753 288.477 79.3454 288.276 81.2261L289.767 81.3855L291.259 81.5448C291.483 79.442 291.473 77.3403 291.211 75.2408L289.722 75.4263ZM288.572 87.0629L287.14 86.6168C286.58 88.4131 285.84 90.226 284.925 92.0572L286.266 92.7278L287.608 93.3985C288.588 91.4383 289.392 89.4755 290.004 87.5091L288.572 87.0629ZM283.377 97.7323L282.121 96.9125C281.09 98.4923 279.939 100.084 278.673 101.687L279.851 102.616L281.028 103.546C282.343 101.879 283.548 100.215 284.633 98.5521L283.377 97.7323ZM275.933 107.229L274.822 106.221C273.578 107.592 272.257 108.97 270.862 110.357L271.92 111.421L272.978 112.484C274.405 111.065 275.762 109.649 277.043 108.237L275.933 107.229ZM267.474 115.649L266.463 114.541C265.04 115.84 263.558 117.145 262.02 118.458L262.993 119.599L263.967 120.74C265.529 119.408 267.036 118.08 268.485 116.757L267.474 115.649ZM258.503 123.325L257.56 122.158C256.026 123.398 254.445 124.644 252.821 125.896L253.737 127.084L254.652 128.272C256.294 127.007 257.892 125.747 259.445 124.491L258.503 123.325ZM248.854 130.773L247.961 129.568C246.438 130.696 244.883 131.829 243.298 132.968L244.172 134.186L245.047 135.405C246.645 134.258 248.212 133.116 249.747 131.978L248.854 130.773ZM239.307 137.63L238.448 136.401C236.802 137.55 235.127 138.706 233.424 139.867L234.269 141.106L235.115 142.345C236.826 141.178 238.51 140.017 240.166 138.86L239.307 137.63ZM229.318 144.449L228.484 143.203C226.879 144.276 225.253 145.354 223.606 146.438L224.431 147.691L225.256 148.944C226.908 147.857 228.54 146.774 230.152 145.696L229.318 144.449ZM219.425 150.962L218.608 149.704C216.923 150.798 215.219 151.898 213.498 153.002L214.309 154.265L215.119 155.527C216.844 154.42 218.552 153.317 220.242 152.22L219.425 150.962ZM209.263 157.489L208.458 156.223C206.816 157.268 205.16 158.318 203.492 159.373L204.293 160.641L205.095 161.908C206.765 160.852 208.424 159.801 210.068 158.754L209.263 157.489ZM199.248 163.822L198.449 162.552C196.756 163.617 195.051 164.687 193.336 165.763L194.133 167.034L194.93 168.305C196.646 167.228 198.352 166.157 200.046 165.092L199.248 163.822ZM189.004 170.247L188.208 168.976C186.549 170.014 184.887 171.054 183.212 172.103L184.008 173.375L184.804 174.646C186.475 173.6 188.145 172.555 189.8 171.518L189.004 170.247ZM178.968 176.532L178.171 175.261C176.484 176.319 174.79 177.382 173.09 178.451L173.889 179.72L174.687 180.99C176.385 179.923 178.078 178.86 179.764 177.803L178.968 176.532ZM168.777 182.94L167.977 181.672C166.3 182.73 164.619 183.794 162.935 184.862L163.739 186.129L164.543 187.395C166.225 186.328 167.903 185.266 169.578 184.209L168.777 182.94ZM158.726 189.32L157.918 188.056C156.243 189.126 154.566 190.201 152.887 191.282L153.699 192.543L154.51 193.805C156.186 192.726 157.861 191.653 159.533 190.584L158.726 189.32ZM148.663 195.799L147.846 194.541C146.165 195.632 144.484 196.729 142.804 197.831L143.626 199.086L144.449 200.34C146.126 199.24 147.803 198.146 149.48 197.057L148.663 195.799ZM138.655 202.365L137.825 201.115C136.167 202.215 134.509 203.32 132.854 204.432L133.69 205.677L134.526 206.922C136.177 205.814 137.83 204.712 139.484 203.615L138.655 202.365ZM128.739 209.024L127.895 207.784C126.244 208.907 124.596 210.036 122.953 211.171L123.805 212.405L124.657 213.639C126.295 212.508 127.937 211.383 129.582 210.264L128.739 209.024ZM118.893 215.823L118.031 214.595C116.394 215.743 114.761 216.897 113.134 218.058L114.005 219.279L114.876 220.5C116.497 219.345 118.123 218.195 119.754 217.051L118.893 215.823ZM109.152 222.772L108.271 221.559C106.655 222.732 105.047 223.911 103.445 225.097L104.338 226.303L105.23 227.508C106.824 226.328 108.426 225.154 110.034 223.986L109.152 222.772ZM99.568 229.871L98.6635 228.674C97.0635 229.884 95.4719 231.1 93.8894 232.323L94.8066 233.51L95.7238 234.696C97.2976 233.48 98.8808 232.271 100.473 231.067L99.568 229.871ZM90.0776 237.207L89.1469 236.031C87.5759 237.273 86.0152 238.523 84.4656 239.78L85.4105 240.945L86.3555 242.11C87.8953 240.861 89.4466 239.619 91.0083 238.383L90.0776 237.207ZM80.8111 244.725L79.8511 243.573C78.3247 244.844 76.8103 246.122 75.3089 247.408L76.2846 248.547L77.2603 249.687C78.751 248.41 80.2548 247.14 81.771 245.878L80.8111 244.725ZM71.7269 252.509L70.7342 251.385C69.2234 252.719 67.7271 254.06 66.2465 255.409L67.2569 256.518L68.2673 257.627C69.7358 256.288 71.2202 254.957 72.7195 253.634L71.7269 252.509ZM62.8813 260.573L61.8523 259.482C60.4039 260.847 58.972 262.221 57.5577 263.603L58.606 264.675L59.6543 265.748C61.0554 264.379 62.4744 263.018 63.9102 261.665L62.8813 260.573ZM54.3719 268.892L53.3032 267.839C51.8792 269.285 50.4751 270.74 49.092 272.204L50.1823 273.234L51.2726 274.264C52.6411 272.816 54.0308 271.376 55.4406 269.944L54.3719 268.892ZM46.1192 277.629L45.0065 276.623C43.6664 278.105 42.3483 279.596 41.0534 281.097L42.1891 282.077L43.3248 283.057C44.6042 281.574 45.9069 280.1 47.2318 278.635L46.1192 277.629ZM38.3856 286.596L37.2261 285.644C35.9317 287.222 34.6635 288.809 33.4226 290.407L34.6073 291.327L35.7921 292.247C37.016 290.671 38.2674 289.105 39.5452 287.548L38.3856 286.596ZM30.9938 296.118L29.7833 295.233C28.5984 296.852 27.4421 298.481 26.3157 300.122L27.5522 300.971L28.7888 301.82C29.8978 300.205 31.0366 298.6 32.2043 297.004L30.9938 296.118ZM24.29 305.886L23.0271 305.076C21.9299 306.788 20.8656 308.512 19.8357 310.247L21.1257 311.013L22.4156 311.778C23.4275 310.073 24.4736 308.379 25.5528 306.695L24.29 305.886ZM18.1555 316.229L16.8386 315.51C15.8752 317.277 14.9477 319.055 14.0578 320.846L15.401 321.514L16.7443 322.181C17.6169 320.425 18.5267 318.681 19.4724 316.947L18.1555 316.229ZM12.8703 326.869L11.5015 326.256C10.6755 328.099 9.88945 329.955 9.14494 331.824L10.5384 332.379L11.932 332.934C12.6605 331.105 13.43 329.288 14.2392 327.483L12.8703 326.869ZM8.44649 337.984L7.02986 337.491C6.36766 339.393 5.74879 341.309 5.17473 343.238L6.61241 343.665L8.05009 344.093C8.61089 342.209 9.21568 340.337 9.86311 338.477L8.44649 337.984ZM5.04482 349.424L3.58855 349.064C3.10905 351.006 2.67522 352.961 2.2885 354.929L3.76036 355.218L5.23222 355.508C5.60957 353.587 6.03294 351.679 6.50105 349.783L5.04482 349.424ZM2.75703 361.08L1.27275 360.863C0.98207 362.855 0.739791 364.859 0.547286 366.878L2.04051 367.02L3.53374 367.162C3.72145 365.194 3.95778 363.239 4.24132 361.297L2.75703 361.08ZM1.61909 373.04L0.12062 372.973C0.0323323 374.946 -0.00825616 376.933 0.00010557 378.932L1.50011 378.926L3.00008 378.919C2.99193 376.969 3.03151 375.032 3.1176 373.107L1.61909 373.04ZM1.66749 384.817L0.169569 384.896C0.274641 386.896 0.428755 388.909 0.63307 390.934L2.12547 390.784L3.6179 390.633C3.41841 388.655 3.26799 386.691 3.16542 384.738L1.66749 384.817ZM2.8813 396.826L1.39772 397.047C1.69026 399.008 2.02977 400.981 2.41731 402.964L3.88948 402.677L5.36168 402.389C4.98265 400.449 4.65074 398.521 4.36488 396.605L2.8813 396.826ZM5.12297 408.349L3.66423 408.698C4.12452 410.62 4.62977 412.553 5.18086 414.496L6.62394 414.087L8.06703 413.678C7.52708 411.774 7.0323 409.881 6.58171 408L5.12297 408.349ZM8.39799 419.891L6.97252 420.358C7.61616 422.323 8.30653 424.299 9.04451 426.285L10.4506 425.763L11.8567 425.241C11.1322 423.29 10.4547 421.351 9.82344 419.424L8.39799 419.891ZM12.5379 431.098L11.1505 431.668C11.8821 433.449 12.6517 435.238 13.4602 437.036L14.8282 436.421L16.1963 435.806C15.4011 434.037 14.6443 432.278 13.9254 430.528L12.5379 431.098ZM17.3502 441.798L16.0023 442.456C16.8889 444.271 17.8148 446.095 18.7807 447.929L20.1077 447.229L21.4348 446.53C20.4829 444.724 19.5709 442.927 18.698 441.139L17.3502 441.798ZM23.1047 452.716L21.7989 453.455C22.7515 455.139 23.7378 456.832 24.7582 458.532L26.0443 457.76L27.3303 456.988C26.3231 455.31 25.35 453.64 24.4104 451.978L23.1047 452.716ZM29.0468 462.626L27.7797 463.429C28.8183 465.068 29.8886 466.714 30.9909 468.367L32.2389 467.535L33.4869 466.703C32.3973 465.069 31.3398 463.442 30.3139 461.823L29.0468 462.626ZM35.6233 472.488L34.3943 473.348C35.5612 475.015 36.7604 476.689 37.9925 478.371L39.2024 477.484L40.4123 476.597C39.1929 474.933 38.0063 473.277 36.8522 471.628L35.6233 472.488ZM42.9789 482.524L41.788 483.436C42.9602 484.966 44.1595 486.503 45.3863 488.046L46.5602 487.112L47.7342 486.178C46.5187 484.65 45.3307 483.128 44.1699 481.612L42.9789 482.524ZM50.1397 491.534L48.9818 492.488C50.2056 493.974 51.4548 495.465 52.7296 496.962L53.8716 495.989L55.0136 495.017C53.7493 493.532 52.5108 492.054 51.2976 490.58L50.1397 491.534ZM57.7577 500.478L56.6314 501.469C57.9578 502.977 59.3102 504.49 60.6887 506.009L61.7994 505.001L62.9101 503.993C61.5419 502.485 60.1999 500.984 58.8839 499.488L57.7577 500.478ZM65.9986 509.557L64.9032 510.582C66.3344 512.112 67.7921 513.647 69.2765 515.189L70.3568 514.148L71.4371 513.107C69.9627 511.577 68.5151 510.052 67.094 508.533L65.9986 509.557ZM74.3823 518.274L73.3153 519.328C74.6379 520.667 75.9807 522.01 77.3438 523.357L78.3982 522.291L79.4527 521.224C78.098 519.885 76.7636 518.55 75.4494 517.22L74.3823 518.274ZM82.536 526.333L81.494 527.412C82.8978 528.768 84.3221 530.127 85.767 531.492L86.7968 530.401L87.8265 529.31C86.3897 527.954 84.9736 526.602 83.578 525.254L82.536 526.333ZM91.1814 534.495L90.1637 535.597C91.6501 536.97 93.1572 538.347 94.6854 539.728L95.6913 538.616L96.6972 537.503C95.1768 536.129 93.6776 534.759 92.1992 533.393L91.1814 534.495ZM100.327 542.762L99.333 543.886C100.903 545.276 102.495 546.67 104.108 548.069L105.09 546.936L106.073 545.802C104.468 544.41 102.884 543.023 101.321 541.639L100.327 542.762ZM109.479 550.708L108.507 551.85C109.937 553.068 111.384 554.291 112.848 555.516L113.811 554.366L114.774 553.216C113.317 551.996 111.876 550.779 110.452 549.566L109.479 550.708ZM118.24 558.045L117.287 559.202C118.782 560.434 120.295 561.67 121.824 562.909L122.768 561.743L123.712 560.578C122.19 559.344 120.683 558.114 119.194 556.887L118.24 558.045ZM127.395 565.462L126.46 566.635C128.021 567.88 129.6 569.129 131.195 570.381L132.121 569.201L133.047 568.022C131.458 566.774 129.886 565.53 128.33 564.289L127.395 565.462ZM136.948 572.961L136.031 574.148C137.66 575.407 139.305 576.669 140.968 577.935L141.877 576.742L142.785 575.548C141.128 574.287 139.489 573.029 137.866 571.774L136.948 572.961Z" fill="white"/>
</svg>
