<svg width="16" height="16" viewBox="0 0 16 16" fill="none" xmlns="http://www.w3.org/2000/svg">
<path d="M6 12C6 12.5304 6.21071 13.0391 6.58579 13.4142C6.96086 13.7893 7.46957 14 8 14C8.53043 14 9.03914 13.7893 9.41421 13.4142C9.78929 13.0391 10 12.5304 10 12" stroke-width="1.5" stroke-linecap="round" stroke-linejoin="round"/>
<path d="M3.5009 6.5C3.5009 5.30653 3.975 4.16193 4.81892 3.31802C5.66283 2.47411 6.80742 2 8.0009 2C9.19437 2 10.339 2.47411 11.1829 3.31802C12.0268 4.16193 12.5009 5.30653 12.5009 6.5C12.5009 8.73875 13.0196 10.5375 13.4321 11.25C13.476 11.3259 13.4991 11.4119 13.4991 11.4996C13.4992 11.5872 13.4763 11.6733 13.4326 11.7492C13.3889 11.8252 13.326 11.8883 13.2503 11.9324C13.1745 11.9764 13.0885 11.9997 13.0009 12H3.0009C2.91339 11.9995 2.82754 11.976 2.75195 11.9319C2.67636 11.8878 2.61367 11.8246 2.57014 11.7487C2.52661 11.6728 2.50377 11.5868 2.50391 11.4992C2.50404 11.4117 2.52714 11.3258 2.5709 11.25C2.98277 10.5375 3.5009 8.73813 3.5009 6.5Z" stroke-width="1.5" stroke-linecap="round" stroke-linejoin="round"/>
</svg>
