<svg width="10" height="10" viewBox="0 0 10 10" fill="none" xmlns="http://www.w3.org/2000/svg">
<path d="M8.34634 6.02915L5.22134 2.90415C5.19232 2.8751 5.15785 2.85205 5.11992 2.83632C5.08198 2.82059 5.04131 2.8125 5.00025 2.8125C4.95918 2.8125 4.91851 2.82059 4.88058 2.83632C4.84264 2.85205 4.80818 2.8751 4.77915 2.90415L1.65415 6.02915C1.6104 6.07286 1.5806 6.12856 1.56852 6.18921C1.55644 6.24986 1.56263 6.31274 1.5863 6.36987C1.60997 6.427 1.65007 6.47582 1.7015 6.51016C1.75294 6.54449 1.8134 6.56279 1.87525 6.56275H8.12525C8.18709 6.56279 8.24756 6.54449 8.29899 6.51016C8.35043 6.47582 8.39052 6.427 8.41419 6.36987C8.43786 6.31274 8.44405 6.24986 8.43197 6.18921C8.4199 6.12856 8.39009 6.07286 8.34634 6.02915Z"/>
</svg>
