<svg width="20" height="20" viewBox="0 0 20 20" fill="none" xmlns="http://www.w3.org/2000/svg">
<circle cx="10" cy="10" r="10" fill="#15A776"/>
<g clip-path="url(#clip0_52997_6650)">
<path d="M7.81356 15.6756H7.37614C6.89298 15.6756 6.5013 15.2839 6.5013 14.8008L6.5013 5.17757C6.5013 4.69441 6.89298 4.30273 7.37614 4.30273H12.6252C13.1083 4.30273 13.5 4.69441 13.5 5.17757V14.8008C13.5 15.2839 13.1083 15.6756 12.6252 15.6756H12.1877" stroke="white" stroke-linecap="round" stroke-linejoin="round"/>
<path d="M9.9999 6.81816C10.3019 6.81816 10.5467 6.57336 10.5467 6.27138C10.5467 5.96941 10.3019 5.72461 9.9999 5.72461C9.69792 5.72461 9.45312 5.96941 9.45312 6.27138C9.45312 6.57336 9.69792 6.81816 9.9999 6.81816Z" fill="white"/>
</g>
<g clip-path="url(#clip1_52997_6650)">
<path d="M10 16.7436V13.7363" stroke="white" stroke-linecap="round" stroke-linejoin="round"/>
<path d="M8.76953 14.9666L9.99977 13.7363L11.23 14.9666" stroke="white" stroke-linecap="round" stroke-linejoin="round"/>
</g>
<defs>
<clipPath id="clip0_52997_6650">
<rect width="13.9974" height="13.9974" fill="white" transform="translate(3.00195 2.99023)"/>
</clipPath>
<clipPath id="clip1_52997_6650">
<rect width="4.37419" height="4.37419" fill="white" transform="translate(7.8125 13.0508)"/>
</clipPath>
</defs>
</svg>
