<svg width="14" height="14" viewBox="0 0 14 14" fill="none" xmlns="http://www.w3.org/2000/svg">
<path d="M12.25 7.4375C12.0274 10.1325 9.75242 12.25 7 12.25C5.60761 12.25 4.27226 11.6969 3.28769 10.7123C2.30312 9.72774 1.75 8.39239 1.75 7C1.75 4.24758 3.8675 1.97258 6.5625 1.75" stroke="#EB3E5A" stroke-width="1.5" stroke-linecap="round" stroke-linejoin="round"/>
<path d="M7 3.9375V7H10.0625" stroke="#EB3E5A" stroke-width="1.5" stroke-linecap="round" stroke-linejoin="round"/>
<path d="M8.75 2.51562C9.05203 2.51562 9.29688 2.27078 9.29688 1.96875C9.29688 1.66672 9.05203 1.42188 8.75 1.42188C8.44797 1.42188 8.20312 1.66672 8.20312 1.96875C8.20312 2.27078 8.44797 2.51562 8.75 2.51562Z" fill="#EB3E5A"/>
<path d="M10.7188 3.82812C11.0208 3.82812 11.2656 3.58328 11.2656 3.28125C11.2656 2.97922 11.0208 2.73438 10.7188 2.73438C10.4167 2.73438 10.1719 2.97922 10.1719 3.28125C10.1719 3.58328 10.4167 3.82812 10.7188 3.82812Z" fill="#EB3E5A"/>
<path d="M12.0312 5.79688C12.3333 5.79688 12.5781 5.55203 12.5781 5.25C12.5781 4.94797 12.3333 4.70312 12.0312 4.70312C11.7292 4.70312 11.4844 4.94797 11.4844 5.25C11.4844 5.55203 11.7292 5.79688 12.0312 5.79688Z" fill="#EB3E5A"/>
</svg>
