<svg viewBox="0 0 16 16" fill="none" xmlns="http://www.w3.org/2000/svg">
<g clip-path="url(#clip0_52012_830)">
<path d="M8 16C12.4183 16 16 12.4183 16 8C16 3.58172 12.4183 0 8 0C3.58172 0 0 3.58172 0 8C0 12.4183 3.58172 16 8 16Z" fill="#1D1D1D"/>
<path d="M13.9624 7.94557C13.9624 11.8875 11.5501 13.1523 10.2791 12.0261C9.23287 11.1078 8.92156 9.16713 7.34794 8.96788C5.35063 8.71663 5.17769 11.3763 3.86347 11.3763C2.33303 11.3763 2.03906 9.14978 2.03906 8.00622C2.03906 6.83663 2.36762 5.24253 3.67322 5.24253C5.195 5.24253 5.28147 7.52107 7.18366 7.39975C9.07722 7.26982 9.11178 4.896 10.3396 3.88235C11.4117 3.00735 13.9624 3.95166 13.9624 7.94557Z" fill="#97FCE4"/>
</g>
<defs>
<clipPath id="clip0_52012_830">
<rect width="20" height="20" fill="white"/>
</clipPath>
</defs>
</svg>
