<svg viewBox="0 0 20 20" fill="none" xmlns="http://www.w3.org/2000/svg">
<g clip-path="url(#clip0_51778_5323)">
<path d="M10 20C15.5417 20 20 15.5417 20 10C20 4.4583 15.5417 0 10 0C4.4583 0 0 4.4583 0 10C0 15.5417 4.4583 20 10 20Z" fill="#2775CA"/>
<path d="M12.7493 11.584C12.7493 10.1257 11.8743 9.6257 10.1243 9.4174C8.8743 9.25069 8.6243 8.91739 8.6243 8.33399C8.6243 7.75059 9.041 7.37569 9.87429 7.37569C10.6243 7.37569 11.041 7.62569 11.2493 8.25069C11.291 8.37569 11.416 8.45899 11.541 8.45899H12.2076C12.3743 8.45899 12.4993 8.33399 12.4993 8.16739V8.12569C12.3326 7.20899 11.5826 6.50069 10.6243 6.41739V5.41739C10.6243 5.25068 10.4993 5.12568 10.291 5.08398H9.66599C9.49929 5.08398 9.3743 5.20898 9.3326 5.41739V6.37569C8.08261 6.54239 7.29101 7.37569 7.29101 8.41739C7.29101 9.7924 8.12431 10.334 9.87429 10.5424C11.041 10.7507 11.416 11.0007 11.416 11.6674C11.416 12.3341 10.8326 12.7924 10.041 12.7924C8.9576 12.7924 8.5826 12.334 8.4576 11.709C8.416 11.5424 8.29101 11.459 8.16601 11.459H7.45761C7.29101 11.459 7.16602 11.584 7.16602 11.7507V11.7924C7.33261 12.834 7.99931 13.584 9.3743 13.7924V14.7924C9.3743 14.959 9.49929 15.084 9.70759 15.1257H10.3326C10.4993 15.1257 10.6243 15.0007 10.666 14.7924V13.7924C11.916 13.584 12.7493 12.709 12.7493 11.584V11.584Z" fill="white"/>
<path d="M7.87581 15.9576C4.62581 14.791 2.95911 11.166 4.16751 7.95762C4.79251 6.20762 6.16751 4.87432 7.87581 4.24932C8.04251 4.16602 8.12581 4.04102 8.12581 3.83262V3.24932C8.12581 3.08262 8.04251 2.95762 7.87581 2.91602C7.83411 2.91602 7.75081 2.91602 7.70911 2.95762C3.75081 4.20762 1.58411 8.41602 2.83411 12.3743C3.58411 14.7076 5.37581 16.4993 7.70911 17.2493C7.87581 17.3326 8.04251 17.2493 8.08411 17.0826C8.12581 17.041 8.12581 16.9993 8.12581 16.916V16.3326C8.12581 16.2076 8.00081 16.041 7.87581 15.9576ZM12.2925 2.95762C12.1258 2.87432 11.9591 2.95762 11.9175 3.12432C11.8758 3.16602 11.8758 3.20762 11.8758 3.29102V3.87432C11.8758 4.04102 12.0008 4.20762 12.1258 4.29102C15.3758 5.45762 17.0425 9.08262 15.8341 12.291C15.2091 14.041 13.8341 15.3743 12.1258 15.9993C11.9591 16.0826 11.8758 16.2076 11.8758 16.416V16.9993C11.8758 17.166 11.9591 17.291 12.1258 17.3326C12.1675 17.3326 12.2508 17.3326 12.2925 17.291C16.2508 16.041 18.4175 11.8326 17.1675 7.87432C16.4175 5.49932 14.5841 3.70762 12.2925 2.95762V2.95762Z" fill="white"/>
</g>
<defs>
<clipPath id="clip0_51778_5323">
<rect width="20" height="20" fill="white"/>
</clipPath>
</defs>
</svg>
