<svg width="24" height="24" viewBox="0 0 24 24" fill="none" xmlns="http://www.w3.org/2000/svg">
<mask id="mask0_49707_65002" style="mask-type:alpha" maskUnits="userSpaceOnUse" x="1" y="1" width="22" height="22">
<circle cx="12" cy="12" r="11" fill="#D9D9D9"/>
</mask>
<g mask="url(#mask0_49707_65002)">
<rect width="24" height="24" fill="#EB3E5A"/>
</g>
<path d="M9.33485 7.8213C8.91686 7.40332 8.23917 7.40332 7.82118 7.8213C7.40319 8.23929 7.40319 8.91699 7.82118 9.33497L10.4863 12.0001L7.82118 14.6652C7.40319 15.0832 7.40319 15.7609 7.82118 16.1789C8.23917 16.5969 8.91686 16.5969 9.33485 16.1789L12 13.5138L14.6651 16.1789C15.0831 16.5969 15.7608 16.5969 16.1788 16.1789C16.5968 15.7609 16.5968 15.0832 16.1788 14.6652L13.5136 12.0001L16.1788 9.33497C16.5968 8.91699 16.5968 8.23929 16.1788 7.8213C15.7608 7.40332 15.0831 7.40332 14.6651 7.8213L12 10.4864L9.33485 7.8213Z" fill="white"/>
</svg>
