<svg width="24" height="24" viewBox="0 0 24 24" fill="none" xmlns="http://www.w3.org/2000/svg">
<mask id="mask0_49707_64952" style="mask-type:alpha" maskUnits="userSpaceOnUse" x="1" y="1" width="22" height="22">
<circle cx="12" cy="12" r="11" fill="#D9D9D9"/>
</mask>
<g mask="url(#mask0_49707_64952)">
<rect width="24" height="24" fill="#2861AB"/>
</g>
<path fill-rule="evenodd" clip-rule="evenodd" d="M9.63328 10.8125C9.63328 10.2603 10.081 9.81254 10.6333 9.81254H12.0001C12.5523 9.81254 13.0001 10.2603 13.0001 10.8125V15.4693H14.2059C14.7582 15.4693 15.2059 15.917 15.2059 16.4693C15.2059 17.0216 14.7582 17.4693 14.2059 17.4693H9.79419C9.2419 17.4693 8.79419 17.0216 8.79419 16.4693C8.79419 15.917 9.2419 15.4693 9.79419 15.4693H11.0001V11.8125H10.6333C10.081 11.8125 9.63328 11.3648 9.63328 10.8125Z" fill="white"/>
<path d="M13.2327 7.83778C13.2327 8.56044 12.6469 9.14627 11.9242 9.14627C11.2015 9.14627 10.6157 8.56044 10.6157 7.83778C10.6157 7.11513 11.2015 6.5293 11.9242 6.5293C12.6469 6.5293 13.2327 7.11513 13.2327 7.83778Z" fill="white"/>
</svg>
