<svg width="24" height="24" viewBox="0 0 24 24" fill="none" xmlns="http://www.w3.org/2000/svg">
<mask id="mask0_49707_64989" style="mask-type:alpha" maskUnits="userSpaceOnUse" x="1" y="1" width="22" height="22">
<circle cx="12" cy="12" r="11" fill="#D9D9D9"/>
</mask>
<g mask="url(#mask0_49707_64989)">
<rect width="24" height="24" fill="#FF9500"/>
</g>
<path d="M11.4477 6.05951C11.622 5.98276 11.8104 5.9432 12.0008 5.94336C12.1911 5.94341 12.3793 5.98312 12.5534 6.05996C12.7275 6.13681 12.8837 6.24909 13.012 6.38966C13.1403 6.53024 13.2379 6.696 13.2986 6.87639C13.3592 7.05678 13.3816 7.24783 13.3643 7.43736L12.8183 13.4464C12.7971 13.6484 12.7018 13.8354 12.5508 13.9713C12.3999 14.1073 12.2039 14.1825 12.0008 14.1825C11.7977 14.1825 11.6017 14.1073 11.4508 13.9713C11.2998 13.8354 11.2045 13.6484 11.1833 13.4464L10.6358 7.43736C10.6185 7.24771 10.6409 7.05653 10.7017 6.87604C10.7624 6.69555 10.8601 6.52971 10.9886 6.38911C11.117 6.24852 11.2734 6.13626 11.4477 6.05951Z" fill="white"/>
<path d="M13.3093 16.7471C13.3093 17.4698 12.7235 18.0556 12.0009 18.0556C11.2782 18.0556 10.6924 17.4698 10.6924 16.7471C10.6924 16.0245 11.2782 15.4386 12.0009 15.4386C12.7235 15.4386 13.3093 16.0245 13.3093 16.7471Z" fill="white"/>
</svg>
